<svg width="538" height="295" viewBox="0 0 538 295" fill="none" xmlns="http://www.w3.org/2000/svg">
<g opacity="0.9" filter="url(#filter0_d)">
<path d="M92.6552 164.218L46.0776 210.869C33.4936 223.473 42.4203 245 60.2309 245H478C489.046 245 498 236.046 498 225V74.3378C498 56.5121 476.442 47.5923 463.847 60.2068L357.731 166.489C349.687 174.546 336.55 174.272 328.848 165.888L258.878 89.7137C251.176 81.3294 238.039 81.0558 229.995 89.1123L152.137 167.092C144.324 174.917 131.644 174.917 123.831 167.092L120.962 164.218C113.149 156.393 100.468 156.393 92.6552 164.218Z" fill="#FF6615"/>
</g>
<path d="M10.2308 220.234C9.2553 221.211 9.25654 222.794 10.2336 223.769C11.2107 224.745 12.7936 224.743 13.7692 223.766L10.2308 220.234ZM500.5 2.99804C500.499 1.61733 499.379 0.498919 497.998 0.500001L475.498 0.51762C474.117 0.518701 472.999 1.63887 473 3.01958C473.001 4.40029 474.121 5.5187 475.502 5.51762L495.502 5.50196L495.518 25.502C495.519 26.8827 496.639 28.0011 498.02 28C499.4 27.9989 500.519 26.8787 500.518 25.498L500.5 2.99804ZM330.266 144.315L328.418 145.999L330.266 144.315ZM356.31 144.912L358.08 146.678L356.31 144.912ZM257.887 64.8587L259.735 63.1752L257.887 64.8587ZM150.722 145.51L152.491 147.276L150.722 145.51ZM119.546 139.801L117.777 141.567L119.546 139.801ZM13.7692 223.766L95.8397 141.567L92.3014 138.034L10.2308 220.234L13.7692 223.766ZM117.777 141.567L123.477 147.276L127.015 143.743L121.315 138.034L117.777 141.567ZM152.491 147.276L233.612 66.0286L230.073 62.4958L148.953 143.743L152.491 147.276ZM256.039 66.5422L328.418 145.999L332.114 142.632L259.735 63.1752L256.039 66.5422ZM358.08 146.678L499.769 4.76638L496.231 1.23362L354.541 143.145L358.08 146.678ZM328.418 145.999C336.299 154.65 349.811 154.96 358.08 146.678L354.541 143.145C348.289 149.407 338.073 149.173 332.114 142.632L328.418 145.999ZM233.612 66.0286C239.864 59.7668 250.08 60.0008 256.039 66.5422L259.735 63.1752C251.854 54.5236 238.342 54.2142 230.073 62.4958L233.612 66.0286ZM123.477 147.276C131.485 155.297 144.483 155.297 152.491 147.276L148.953 143.743C142.898 149.808 133.071 149.808 127.015 143.743L123.477 147.276ZM95.8397 141.567C101.895 135.503 111.722 135.503 117.777 141.567L121.315 138.034C113.307 130.014 100.31 130.014 92.3014 138.034L95.8397 141.567Z" fill="#FFE0D0"/>
<defs>
<filter id="filter0_d" x="0.190674" y="24.2977" width="537.809" height="270.702" filterUnits="userSpaceOnUse" color-interpolation-filters="sRGB">
<feFlood flood-opacity="0" result="BackgroundImageFix"/>
<feColorMatrix in="SourceAlpha" type="matrix" values="0 0 0 0 0 0 0 0 0 0 0 0 0 0 0 0 0 0 127 0"/>
<feOffset dy="10"/>
<feGaussianBlur stdDeviation="20"/>
<feColorMatrix type="matrix" values="0 0 0 0 1 0 0 0 0 0.4 0 0 0 0 0.0823529 0 0 0 0.2 0"/>
<feBlend mode="normal" in2="BackgroundImageFix" result="effect1_dropShadow"/>
<feBlend mode="normal" in="SourceGraphic" in2="effect1_dropShadow" result="shape"/>
</filter>
</defs>
</svg>
