<svg width="384" height="392" viewBox="0 0 384 392" fill="none" xmlns="http://www.w3.org/2000/svg">
<path d="M197.5 301.5C197.5 300.119 196.381 299 195 299C193.619 299 192.5 300.119 192.5 301.5L197.5 301.5ZM193.232 339.768C194.209 340.744 195.791 340.744 196.768 339.768L212.678 323.858C213.654 322.882 213.654 321.299 212.678 320.322C211.701 319.346 210.118 319.346 209.142 320.322L195 334.464L180.858 320.322C179.882 319.346 178.299 319.346 177.322 320.322C176.346 321.299 176.346 322.882 177.322 323.858L193.232 339.768ZM192.5 301.5L192.5 338H197.5L197.5 301.5L192.5 301.5Z" fill="#FFE0D0"/>
<path d="M117 283L267 283" stroke="#FFE0D0" stroke-width="5" stroke-linecap="round"/>
<path d="M99.9241 264C88.7307 264 78.9014 256.56 75.8629 245.786L67.9654 217.786C63.4662 201.835 75.4524 186 92.0267 186L291.973 186C308.548 186 320.534 201.835 316.035 217.786L308.137 245.786C305.099 256.56 295.269 264 284.076 264L99.9241 264Z" fill="#FF6615"/>
<path d="M70.6924 171C59.6086 171 49.848 163.702 46.7132 153.071L38.4568 125.071C33.7342 109.055 45.7386 92.9999 62.436 92.9999L321.564 92.9999C338.261 92.9999 350.266 109.055 345.543 125.071L337.287 153.071C334.152 163.702 324.391 171 313.308 171L70.6924 171Z" fill="#FF6615"/>
<path d="M40.9241 77.9999C29.7307 77.9999 19.9014 70.5596 16.8628 59.7864L8.96542 31.7865C4.46618 15.8347 16.4524 2.2169e-05 33.0267 1.38151e-05L350.973 -4.58591e-05C367.548 -5.4213e-05 379.534 15.8346 375.035 31.7865L367.137 59.7864C364.099 70.5595 354.269 77.9999 343.076 77.9999L40.9241 77.9999Z" fill="#FF6615"/>
</svg>
