<svg width="30" height="30" viewBox="0 0 30 30" fill="none" xmlns="http://www.w3.org/2000/svg">
<path d="M15 8.75C16.3807 8.75 17.5 7.63071 17.5 6.25C17.5 4.86929 16.3807 3.75 15 3.75C13.6193 3.75 12.5 4.86929 12.5 6.25C12.5 7.63071 13.6193 8.75 15 8.75Z" stroke="#FF6615" stroke-width="1.5" stroke-linecap="round" stroke-linejoin="round"/>
<path d="M12.5 27.5V21.25L11.25 20V15C11.25 14.6685 11.3817 14.3505 11.6161 14.1161C11.8505 13.8817 12.1685 13.75 12.5 13.75H17.5C17.8315 13.75 18.1495 13.8817 18.3839 14.1161C18.6183 14.3505 18.75 14.6685 18.75 15V20L17.5 21.25V27.5" stroke="#FF6615" stroke-width="1.5" stroke-linecap="round" stroke-linejoin="round"/>
</svg>
