<svg width="50" height="50" viewBox="0 0 50 50" fill="none"
    xmlns="http://www.w3.org/2000/svg">
    <path d="M25 27.75C26.3117 27.75 27.375 26.6867 27.375 25.375C27.375 24.0633 26.3117 23 25 23C23.6883 23 22.625 24.0633 22.625 25.375C22.625 26.6867 23.6883 27.75 25 27.75Z" />
    <path d="M41.625 27.75C42.9367 27.75 44 26.6867 44 25.375C44 24.0633 42.9367 23 41.625 23C40.3133 23 39.25 24.0633 39.25 25.375C39.25 26.6867 40.3133 27.75 41.625 27.75Z" />
    <path d="M8.375 27.75C9.68668 27.75 10.75 26.6867 10.75 25.375C10.75 24.0633 9.68668 23 8.375 23C7.06332 23 6 24.0633 6 25.375C6 26.6867 7.06332 27.75 8.375 27.75Z" />
</svg>
