<svg width="50" height="50" viewBox="0 0 50 50" fill="none"
    xmlns="http://www.w3.org/2000/svg">
    <path d="M32 11.5H35.5C36.4283 11.5 37.3185 11.8688 37.9749 12.5252C38.6313 13.1815 39 14.0718 39 15V39.5C39 40.4283 38.6313 41.3185 37.9749 41.9749C37.3185 42.6313 36.4283 43 35.5 43H14.5C13.5717 43 12.6815 42.6313 12.0251 41.9749C11.3687 41.3185 11 40.4283 11 39.5V15C11 14.0718 11.3687 13.1815 12.0251 12.5252C12.6815 11.8688 13.5717 11.5 14.5 11.5H18" />
    <path d="M30.25 8H19.75C18.7835 8 18 8.7835 18 9.75V13.25C18 14.2165 18.7835 15 19.75 15H30.25C31.2165 15 32 14.2165 32 13.25V9.75C32 8.7835 31.2165 8 30.25 8Z" />
</svg>
