<svg width="40" height="40" viewBox="0 0 40 40" fill="none"
    xmlns="http://www.w3.org/2000/svg">
    <path d="M16.5089 32.0002C17.1516 32.0002 17.6726 31.4885 17.6726 30.8573C17.6726 30.2262 17.1516 29.7145 16.5089 29.7145C15.8663 29.7145 15.3453 30.2262 15.3453 30.8573C15.3453 31.4885 15.8663 32.0002 16.5089 32.0002Z" />
    <path d="M29.3091 32.0002C29.9518 32.0002 30.4728 31.4885 30.4728 30.8573C30.4728 30.2262 29.9518 29.7145 29.3091 29.7145C28.6665 29.7145 28.1455 30.2262 28.1455 30.8573C28.1455 31.4885 28.6665 32.0002 29.3091 32.0002Z" />
    <path d="M7.20001 8H11.8546L14.9731 23.3029C15.0795 23.829 15.371 24.3017 15.7964 24.6381C16.2219 24.9744 16.7543 25.1531 17.3004 25.1429H28.6109C29.157 25.1531 29.6894 24.9744 30.1149 24.6381C30.5403 24.3017 30.8318 23.829 30.9382 23.3029L32.8 13.7143H13.0182" />
</svg>
