<svg width="30" height="30" viewBox="0 0 30 30" fill="none" xmlns="http://www.w3.org/2000/svg">
<path d="M14.3581 7.18711C13.9183 7.18711 13.5613 6.83016 13.5613 6.39033V5.59356H5.59356V6.39033C5.59356 6.83016 5.2366 7.18711 4.79678 7.18711C4.35696 7.18711 4 6.83016 4 6.39033V4.79678C4 4.35696 4.35696 4 4.79678 4H14.3581C14.7979 4 15.1549 4.35696 15.1549 4.79678V6.39033C15.1549 6.83016 14.7979 7.18711 14.3581 7.18711Z" fill="#FF6615"/>
<path d="M9.57803 15.1549C9.13821 15.1549 8.78125 14.7979 8.78125 14.3581V4.79678C8.78125 4.35696 9.13821 4 9.57803 4C10.0178 4 10.3748 4.35696 10.3748 4.79678V14.3581C10.3748 14.7979 10.0178 15.1549 9.57803 15.1549Z" fill="#FF6615"/>
<path d="M11.1714 15.155H7.98428C7.54446 15.155 7.1875 14.798 7.1875 14.3582C7.1875 13.9184 7.54446 13.5614 7.98428 13.5614H11.1714C11.6112 13.5614 11.9682 13.9184 11.9682 14.3582C11.9682 14.798 11.6112 15.155 11.1714 15.155Z" fill="#FF6615"/>
<path d="M25.5133 5.59356H19.1391C18.6992 5.59356 18.3423 5.2366 18.3423 4.79678C18.3423 4.35696 18.6992 4 19.1391 4H25.5133C25.9531 4 26.3101 4.35696 26.3101 4.79678C26.3101 5.2366 25.9531 5.59356 25.5133 5.59356Z" fill="#FF6615"/>
<path d="M25.5133 10.3742H19.1391C18.6992 10.3742 18.3423 10.0172 18.3423 9.57742C18.3423 9.1376 18.6992 8.78064 19.1391 8.78064H25.5133C25.9531 8.78064 26.3101 9.1376 26.3101 9.57742C26.3101 10.0172 25.9531 10.3742 25.5133 10.3742Z" fill="#FF6615"/>
<path d="M25.5133 15.155H19.1391C18.6992 15.155 18.3423 14.798 18.3423 14.3582C18.3423 13.9184 18.6992 13.5614 19.1391 13.5614H25.5133C25.9531 13.5614 26.3101 13.9184 26.3101 14.3582C26.3101 14.798 25.9531 15.155 25.5133 15.155Z" fill="#FF6615"/>
<path d="M25.513 19.9354H4.79678C4.35696 19.9354 4 19.5784 4 19.1386C4 18.6988 4.35696 18.3418 4.79678 18.3418H25.513C25.9528 18.3418 26.3098 18.6988 26.3098 19.1386C26.3098 19.5784 25.9528 19.9354 25.513 19.9354Z" fill="#FF6615"/>
<path d="M25.513 24.7161H4.79678C4.35696 24.7161 4 24.3592 4 23.9193C4 23.4795 4.35696 23.1226 4.79678 23.1226H25.513C25.9528 23.1226 26.3098 23.4795 26.3098 23.9193C26.3098 24.3592 25.9528 24.7161 25.513 24.7161Z" fill="#FF6615"/>
</svg>
