<svg width="40" height="40" viewBox="0 0 40 40" fill="none"
    xmlns="http://www.w3.org/2000/svg">
    <path d="M15.0192 30.036C19.3377 30.036 22.8385 26.5352 22.8385 22.2167C22.8385 17.8983 19.3377 14.3975 15.0192 14.3975C10.7008 14.3975 7.19995 17.8983 7.19995 22.2167C7.19995 26.5352 10.7008 30.036 15.0192 30.036Z" />
    <path d="M27.8144 7.99992C30.1699 7.99992 32.0794 9.90945 32.0794 12.265C32.0794 14.6205 30.1699 16.53 27.8144 16.53C25.4588 16.53 23.5493 14.6205 23.5493 12.265C23.5493 9.90945 25.4588 7.99992 27.8144 7.99992Z" />
    <path d="M21.4167 17.1621L24.6155 14.9506" />
    <path d="M25.6818 32.8C26.8596 32.8 27.8144 31.8452 27.8144 30.6674C27.8144 29.4897 26.8596 28.5349 25.6818 28.5349C24.5041 28.5349 23.5493 29.4897 23.5493 30.6674C23.5493 31.8452 24.5041 32.8 25.6818 32.8Z" />
    <path d="M20.7061 27.9036L23.9048 30.1151" />
</svg>
