<svg width="50" height="50" viewBox="0 0 50 50" fill="none"
    xmlns="http://www.w3.org/2000/svg">
    <path d="M28.0439 9H15.0439C14.182 9 13.3553 9.34768 12.7458 9.96655C12.1364 10.5854 11.7939 11.4248 11.7939 12.3V38.7C11.7939 39.5752 12.1364 40.4146 12.7458 41.0335C13.3553 41.6523 14.182 42 15.0439 42H34.5439C35.4059 42 36.2325 41.6523 36.842 41.0335C37.4515 40.4146 37.7939 39.5752 37.7939 38.7V18.9L28.0439 9Z" />
    <path d="M28.0439 9V18.9H37.7939" />
    <path d="M31.2939 27.1499H18.2939" />
    <path d="M31.2939 33.75H18.2939" />
    <path d="M21.5439 20.5498H19.9189H18.2939" />
</svg>
