<svg width="30" height="30" viewBox="0 0 30 30" fill="none" xmlns="http://www.w3.org/2000/svg">
<path d="M15.4421 21.7329C13.9841 21.7329 12.7979 20.5467 12.7979 19.0886C12.7979 17.6305 13.9841 16.4443 15.4421 16.4443C16.9002 16.4443 18.0864 17.6305 18.0864 19.0886C18.0864 20.5467 16.9002 21.7329 15.4421 21.7329ZM15.4421 17.5727C14.6062 17.5727 13.9261 18.2527 13.9261 19.0887C13.9261 19.9246 14.6062 20.6047 15.4421 20.6047C16.278 20.6047 16.9581 19.9246 16.9581 19.0887C16.9581 18.2527 16.278 17.5727 15.4421 17.5727Z" fill="#FF6615"/>
<path d="M18.8602 15.6402C18.4715 15.6509 18.1793 15.2155 18.3389 14.86C18.5804 14.2951 19.4173 14.4621 19.4243 15.076C19.43 15.379 19.163 15.6452 18.8602 15.6402Z" fill="#FF6615"/>
<path d="M28.077 3.42937C27.2776 3.42937 26.5979 3.95119 26.3603 4.67211H17.8674C17.4945 3.69553 16.5479 3 15.4418 3C14.3358 3 13.3893 3.69547 13.0164 4.67211H4.52355C4.28605 3.95119 3.60626 3.42937 2.80688 3.42937C1.81055 3.42937 1 4.23992 1 5.23625C1 6.23251 1.81055 7.04313 2.80688 7.04313C3.60626 7.04313 4.28605 6.5213 4.52355 5.80038H7.73813C7.37099 6.04212 7.02416 6.32069 6.70243 6.63412C5.43283 7.87111 4.69545 9.51247 4.61861 11.2664C3.7803 11.5086 3.16545 12.283 3.16545 13.1984C3.16545 14.307 4.06739 15.209 5.17604 15.209C6.28468 15.209 7.18668 14.3071 7.18668 13.1984C7.18668 12.2883 6.57894 11.5176 5.74796 11.2706C5.90586 8.24181 8.46231 5.80038 11.5101 5.80038H12.8549C12.9599 7.1357 14.0801 8.19013 15.4419 8.19013C16.8037 8.19013 17.9239 7.1357 18.0289 5.80038H19.3737C22.4185 5.80038 24.9774 8.2426 25.1357 11.2698C24.3033 11.5158 23.6941 12.2872 23.6941 13.1984C23.6941 14.307 24.5961 15.209 25.7048 15.209C26.8134 15.209 27.7154 14.3071 27.7154 13.1984C27.7154 12.2841 27.102 11.5105 26.2652 11.2672C26.1885 9.51027 25.4487 7.8662 24.1759 6.62877C23.8557 6.31747 23.5107 6.04071 23.1455 5.80033H26.3603C26.5979 6.52124 27.2776 7.04307 28.077 7.04307C29.0733 7.04313 29.8839 6.23251 29.8839 5.23625C29.8839 4.23992 29.0733 3.42937 28.077 3.42937ZM2.80688 5.91485C2.43269 5.91485 2.12828 5.61044 2.12828 5.23625C2.12828 4.86205 2.43269 4.55764 2.80688 4.55764C3.18107 4.55764 3.48548 4.86205 3.48548 5.23625C3.48548 5.61044 3.18107 5.91485 2.80688 5.91485ZM6.05841 13.1984C6.05841 13.6849 5.66261 14.0808 5.17604 14.0808C4.68952 14.0808 4.29372 13.685 4.29372 13.1984C4.29372 12.7118 4.68952 12.316 5.17604 12.316C5.66261 12.316 6.05841 12.7118 6.05841 13.1984ZM15.4418 7.06185C14.6331 7.06185 13.9751 6.40384 13.9751 5.59509C13.9751 4.78629 14.6331 4.12833 15.4418 4.12833C16.2506 4.12833 16.9087 4.78635 16.9087 5.59509C16.9087 6.40384 16.2506 7.06185 15.4418 7.06185ZM26.5871 13.1984C26.5871 13.6849 26.1912 14.0808 25.7047 14.0808C25.2182 14.0808 24.8223 13.685 24.8223 13.1984C24.8223 12.7118 25.2182 12.316 25.7047 12.316C26.1912 12.316 26.5871 12.7118 26.5871 13.1984ZM28.077 5.91485C27.7028 5.91485 27.3985 5.61044 27.3985 5.23625C27.3985 4.86205 27.7028 4.55764 28.077 4.55764C28.4512 4.55764 28.7556 4.86205 28.7556 5.23625C28.7556 5.61044 28.4512 5.91485 28.077 5.91485Z" fill="#FF6615"/>
<path d="M20.4054 16.7391C20.2567 16.4653 19.9143 16.364 19.6404 16.5127C19.3666 16.6614 19.2652 17.0039 19.4139 17.2777L20.0868 18.5164C20.4046 19.1012 20.4111 19.803 20.1045 20.3937L18.4965 23.4918H12.3872L10.7791 20.3938C10.4724 19.8031 10.479 19.1012 10.7967 18.5165L14.8777 11.0039V14.48C14.8777 14.7916 15.1303 15.0442 15.4418 15.0442C15.7533 15.0442 16.006 14.7916 16.006 14.48V11.004L17.1446 13.0999C17.2933 13.3738 17.6357 13.4751 17.9096 13.3264C18.1834 13.1777 18.2847 12.8351 18.136 12.5614L16.553 9.64729C16.4543 9.46558 16.2641 9.35242 16.0573 9.35242H14.8265C14.6197 9.35242 14.4294 9.46553 14.3308 9.64729L9.80529 17.9779C9.30857 18.8924 9.29825 19.9899 9.77771 20.9135L11.1161 23.4918H10.9591C10.6475 23.4918 10.3949 23.7444 10.3949 24.056C10.3949 24.3675 10.6475 24.6201 10.9591 24.6201H11.3216L10.4025 28.2991C10.3603 28.4676 10.3983 28.6461 10.5052 28.783C10.6121 28.92 10.7761 29 10.9498 29H19.9338C20.1075 29 20.2715 28.92 20.3784 28.783C20.4853 28.6461 20.5232 28.4676 20.4811 28.2991L19.562 24.6201H19.9246C20.2362 24.6201 20.4888 24.3675 20.4888 24.056C20.4888 23.7444 20.2362 23.4918 19.9246 23.4918H19.7677L21.106 20.9135C21.5855 19.9898 21.5752 18.8923 21.0784 17.9778L20.4054 16.7391ZM19.2113 27.8717H11.6721L12.4846 24.6202H18.3989L19.2113 27.8717Z" fill="#FF6615"/>
</svg>
