<svg width="50" height="50" viewBox="0 0 50 50" fill="none"
    xmlns="http://www.w3.org/2000/svg">
    <path d="M15 9L10 15V36C10 36.7956 10.3512 37.5587 10.9763 38.1213C11.6014 38.6839 12.4493 39 13.3333 39H36.6667C37.5507 39 38.3986 38.6839 39.0237 38.1213C39.6488 37.5587 40 36.7956 40 36V15L35 9H15Z" />
    <path d="M10 14.9998H40" />
    <path d="M31.6663 21.0005C31.6663 22.5918 30.964 24.1179 29.7137 25.2431C28.4635 26.3683 26.7678 27.0005 24.9997 27.0005C23.2316 27.0005 21.5359 26.3683 20.2856 25.2431C19.0354 24.1179 18.333 22.5918 18.333 21.0005" />
</svg>
