<svg width="920" height="334" viewBox="0 0 920 334" fill="none" xmlns="http://www.w3.org/2000/svg">
<path fill-rule="evenodd" clip-rule="evenodd" d="M132.308 327.989C132.308 329.716 132.034 331.006 131.487 331.858C130.945 332.711 130.113 333.137 128.992 333.137C127.917 333.137 127.099 332.701 126.538 331.831C125.978 330.956 125.697 329.675 125.697 327.989C125.697 326.248 125.968 324.956 126.511 324.113C127.053 323.27 127.88 322.849 128.992 322.849C130.077 322.849 130.899 323.288 131.46 324.168C132.025 325.048 132.308 326.321 132.308 327.989ZM126.846 327.989C126.846 329.443 127.017 330.503 127.358 331.168C127.7 331.829 128.245 332.159 128.992 332.159C129.749 332.159 130.296 331.824 130.633 331.154C130.975 330.48 131.146 329.425 131.146 327.989C131.146 326.554 130.975 325.503 130.633 324.838C130.296 324.168 129.749 323.833 128.992 323.833C128.245 323.833 127.7 324.163 127.358 324.824C127.017 325.48 126.846 326.535 126.846 327.989ZM137.899 333H136.792V325.877C136.792 325.285 136.81 324.724 136.847 324.195C136.751 324.291 136.644 324.391 136.525 324.496C136.407 324.601 135.865 325.045 134.898 325.829L134.297 325.05L136.942 323.006H137.899V333ZM234.308 327.989C234.308 329.716 234.034 331.006 233.487 331.858C232.945 332.711 232.113 333.137 230.992 333.137C229.917 333.137 229.099 332.701 228.538 331.831C227.978 330.956 227.697 329.675 227.697 327.989C227.697 326.248 227.968 324.956 228.511 324.113C229.053 323.27 229.88 322.849 230.992 322.849C232.077 322.849 232.899 323.288 233.46 324.168C234.025 325.048 234.308 326.321 234.308 327.989ZM228.846 327.989C228.846 329.443 229.017 330.503 229.358 331.168C229.7 331.829 230.245 332.159 230.992 332.159C231.749 332.159 232.296 331.824 232.633 331.154C232.975 330.48 233.146 329.425 233.146 327.989C233.146 326.554 232.975 325.503 232.633 324.838C232.296 324.168 231.749 323.833 230.992 323.833C230.245 323.833 229.7 324.163 229.358 324.824C229.017 325.48 228.846 326.535 228.846 327.989ZM242.265 333H235.695V332.022L238.327 329.377C239.129 328.566 239.658 327.987 239.913 327.641C240.168 327.294 240.36 326.957 240.487 326.629C240.615 326.301 240.679 325.948 240.679 325.569C240.679 325.036 240.517 324.615 240.193 324.305C239.87 323.99 239.421 323.833 238.847 323.833C238.432 323.833 238.038 323.901 237.664 324.038C237.295 324.175 236.882 324.423 236.427 324.783L235.825 324.011C236.746 323.245 237.748 322.862 238.833 322.862C239.772 322.862 240.508 323.104 241.041 323.587C241.574 324.065 241.841 324.71 241.841 325.521C241.841 326.155 241.663 326.782 241.308 327.401C240.952 328.021 240.287 328.805 239.312 329.753L237.124 331.893V331.947H242.265V333ZM335.487 331.858C336.034 331.006 336.308 329.716 336.308 327.989C336.308 326.321 336.025 325.048 335.46 324.168C334.899 323.288 334.077 322.849 332.992 322.849C331.88 322.849 331.053 323.27 330.511 324.113C329.968 324.956 329.697 326.248 329.697 327.989C329.697 329.675 329.978 330.956 330.538 331.831C331.099 332.701 331.917 333.137 332.992 333.137C334.113 333.137 334.945 332.711 335.487 331.858ZM331.358 331.168C331.017 330.503 330.846 329.443 330.846 327.989C330.846 326.535 331.017 325.48 331.358 324.824C331.7 324.163 332.245 323.833 332.992 323.833C333.749 323.833 334.296 324.168 334.633 324.838C334.975 325.503 335.146 326.554 335.146 327.989C335.146 329.425 334.975 330.48 334.633 331.154C334.296 331.824 333.749 332.159 332.992 332.159C332.245 332.159 331.7 331.829 331.358 331.168ZM343.349 326.923C343.709 326.517 343.889 325.995 343.889 325.357C343.889 324.583 343.62 323.974 343.082 323.532C342.544 323.086 341.79 322.862 340.819 322.862C340.227 322.862 339.662 322.956 339.124 323.143C338.591 323.325 338.119 323.578 337.709 323.901L338.283 324.667C338.78 324.348 339.222 324.129 339.609 324.011C339.997 323.892 340.409 323.833 340.847 323.833C341.421 323.833 341.874 323.972 342.207 324.25C342.544 324.528 342.713 324.911 342.713 325.398C342.713 326.009 342.485 326.488 342.029 326.834C341.574 327.176 340.956 327.347 340.177 327.347H339.179V328.324H340.163C342.068 328.324 343.021 328.93 343.021 330.143C343.021 331.496 342.157 332.173 340.43 332.173C339.992 332.173 339.527 332.118 339.035 332.009C338.548 331.895 338.087 331.731 337.654 331.517V332.597C338.069 332.797 338.495 332.936 338.933 333.014C339.375 333.096 339.86 333.137 340.389 333.137C341.605 333.137 342.544 332.882 343.205 332.371C343.866 331.856 344.196 331.122 344.196 330.17C344.196 329.505 344.003 328.967 343.615 328.557C343.228 328.146 342.633 327.891 341.831 327.791V327.736C342.487 327.6 342.993 327.328 343.349 326.923ZM438.308 327.989C438.308 329.716 438.034 331.006 437.487 331.858C436.945 332.711 436.113 333.137 434.992 333.137C433.917 333.137 433.099 332.701 432.538 331.831C431.978 330.956 431.697 329.675 431.697 327.989C431.697 326.248 431.968 324.956 432.511 324.113C433.053 323.27 433.88 322.849 434.992 322.849C436.077 322.849 436.899 323.288 437.46 324.168C438.025 325.048 438.308 326.321 438.308 327.989ZM432.846 327.989C432.846 329.443 433.017 330.503 433.358 331.168C433.7 331.829 434.245 332.159 434.992 332.159C435.749 332.159 436.296 331.824 436.633 331.154C436.975 330.48 437.146 329.425 437.146 327.989C437.146 326.554 436.975 325.503 436.633 324.838C436.296 324.168 435.749 323.833 434.992 323.833C434.245 323.833 433.7 324.163 433.358 324.824C433.017 325.48 432.846 326.535 432.846 327.989ZM446.736 330.703H445.253V333H444.166V330.703H439.306V329.712L444.05 322.951H445.253V329.671H446.736V330.703ZM444.166 329.671V326.349C444.166 325.697 444.189 324.961 444.234 324.141H444.18C443.961 324.578 443.756 324.94 443.564 325.228L440.44 329.671H444.166ZM539.487 331.858C540.034 331.006 540.308 329.716 540.308 327.989C540.308 326.321 540.025 325.048 539.46 324.168C538.899 323.288 538.077 322.849 536.992 322.849C535.88 322.849 535.053 323.27 534.511 324.113C533.968 324.956 533.697 326.248 533.697 327.989C533.697 329.675 533.978 330.956 534.538 331.831C535.099 332.701 535.917 333.137 536.992 333.137C538.113 333.137 538.945 332.711 539.487 331.858ZM535.358 331.168C535.017 330.503 534.846 329.443 534.846 327.989C534.846 326.535 535.017 325.48 535.358 324.824C535.7 324.163 536.245 323.833 536.992 323.833C537.749 323.833 538.296 324.168 538.633 324.838C538.975 325.503 539.146 326.554 539.146 327.989C539.146 329.425 538.975 330.48 538.633 331.154C538.296 331.824 537.749 332.159 536.992 332.159C536.245 332.159 535.7 331.829 535.358 331.168ZM547.301 327.682C546.699 327.158 545.872 326.896 544.819 326.896C544.3 326.896 543.778 326.948 543.254 327.053L543.507 324.052H547.506V323.006H542.536L542.16 327.682L542.748 328.058C543.473 327.925 544.051 327.859 544.484 327.859C546.193 327.859 547.048 328.557 547.048 329.951C547.048 330.667 546.825 331.214 546.378 331.592C545.936 331.97 545.314 332.159 544.512 332.159C544.051 332.159 543.584 332.102 543.11 331.988C542.636 331.87 542.24 331.708 541.921 331.503V332.597C542.513 332.957 543.372 333.137 544.498 333.137C545.656 333.137 546.562 332.843 547.219 332.255C547.88 331.667 548.21 330.856 548.21 329.821C548.21 328.914 547.907 328.201 547.301 327.682ZM642.308 327.989C642.308 329.716 642.034 331.006 641.487 331.858C640.945 332.711 640.113 333.137 638.992 333.137C637.917 333.137 637.099 332.701 636.538 331.831C635.978 330.956 635.697 329.675 635.697 327.989C635.697 326.248 635.968 324.956 636.511 324.113C637.053 323.27 637.88 322.849 638.992 322.849C640.077 322.849 640.899 323.288 641.46 324.168C642.025 325.048 642.308 326.321 642.308 327.989ZM636.846 327.989C636.846 329.443 637.017 330.503 637.358 331.168C637.7 331.829 638.245 332.159 638.992 332.159C639.749 332.159 640.296 331.824 640.633 331.154C640.975 330.48 641.146 329.425 641.146 327.989C641.146 326.554 640.975 325.503 640.633 324.838C640.296 324.168 639.749 323.833 638.992 323.833C638.245 323.833 637.7 324.163 637.358 324.824C637.017 325.48 636.846 326.535 636.846 327.989ZM643.812 328.728C643.812 326.763 644.192 325.296 644.953 324.325C645.719 323.35 646.849 322.862 648.344 322.862C648.859 322.862 649.264 322.906 649.561 322.992V323.97C649.21 323.856 648.809 323.799 648.357 323.799C647.286 323.799 646.468 324.134 645.903 324.804C645.338 325.469 645.028 326.517 644.974 327.948H645.056C645.557 327.164 646.35 326.772 647.435 326.772C648.332 326.772 649.039 327.044 649.554 327.586C650.073 328.128 650.333 328.864 650.333 329.794C650.333 330.833 650.048 331.651 649.479 332.248C648.913 332.84 648.148 333.137 647.182 333.137C646.147 333.137 645.327 332.749 644.721 331.975C644.115 331.195 643.812 330.113 643.812 328.728ZM647.168 332.173C647.815 332.173 648.316 331.97 648.672 331.564C649.032 331.154 649.212 330.564 649.212 329.794C649.212 329.133 649.046 328.614 648.713 328.235C648.38 327.857 647.883 327.668 647.223 327.668C646.812 327.668 646.437 327.752 646.095 327.921C645.753 328.09 645.479 328.322 645.274 328.618C645.074 328.914 644.974 329.222 644.974 329.541C644.974 330.01 645.065 330.448 645.247 330.854C645.429 331.259 645.687 331.58 646.02 331.817C646.357 332.054 646.74 332.173 647.168 332.173ZM743.487 331.858C744.034 331.006 744.308 329.716 744.308 327.989C744.308 326.321 744.025 325.048 743.46 324.168C742.899 323.288 742.077 322.849 740.992 322.849C739.88 322.849 739.053 323.27 738.511 324.113C737.968 324.956 737.697 326.248 737.697 327.989C737.697 329.675 737.978 330.956 738.538 331.831C739.099 332.701 739.917 333.137 740.992 333.137C742.113 333.137 742.945 332.711 743.487 331.858ZM739.358 331.168C739.017 330.503 738.846 329.443 738.846 327.989C738.846 326.535 739.017 325.48 739.358 324.824C739.7 324.163 740.245 323.833 740.992 323.833C741.749 323.833 742.296 324.168 742.633 324.838C742.975 325.503 743.146 326.554 743.146 327.989C743.146 329.425 742.975 330.48 742.633 331.154C742.296 331.824 741.749 332.159 740.992 332.159C740.245 332.159 739.7 331.829 739.358 331.168ZM751.103 324.052L746.96 333H748.218L752.306 323.915V323.006H745.654V324.052H751.103Z" fill="url(#paint0_linear)"/>
<path d="M4 244.499C23 225.999 71.5 188.399 113.5 185.999C166 182.999 191.426 216.024 249.5 223.499C350.5 236.499 418.5 142.267 469.5 124.499C547 97.499 604.5 154.999 656.5 160.999C733.5 169.884 785.882 79.2534 857.5 33C881.5 17.5 891 11 916 4" stroke="url(#paint1_linear)" stroke-width="7" stroke-linecap="round"/>
<path fill-rule="evenodd" clip-rule="evenodd" d="M917 12.0001L125 12V13L917 13.0001V12.0001ZM917 72.0001L125 72V73L917 73.0001V72.0001ZM125 132L917 132V133L125 133V132ZM917 192L125 192V193L917 193V192ZM125 252L917 252V253L125 253V252ZM917 312L125 312V313L917 313V312Z" fill="url(#paint2_linear)"/>
<line x1="845.5" y1="312.5" x2="845.5" y2="41.5" stroke="url(#paint3_linear)"/>
<circle cx="845.5" cy="37" r="10.5" fill="white"/>
<circle cx="845.5" cy="37" r="15.5" stroke="white" stroke-width="2"/>
<defs>
<linearGradient id="paint0_linear" x1="818.5" y1="333.138" x2="114.5" y2="333.138" gradientUnits="userSpaceOnUse">
<stop stop-color="white"/>
<stop offset="1" stop-color="white" stop-opacity="0"/>
</linearGradient>
<linearGradient id="paint1_linear" x1="778" y1="31.5" x2="377.5" y2="432" gradientUnits="userSpaceOnUse">
<stop stop-color="#FF6615"/>
<stop offset="0.398373" stop-color="white"/>
<stop offset="1" stop-color="white" stop-opacity="0"/>
</linearGradient>
<linearGradient id="paint2_linear" x1="815" y1="138.32" x2="40" y2="138.32" gradientUnits="userSpaceOnUse">
<stop stop-color="white" stop-opacity="0.3"/>
<stop offset="1" stop-color="white" stop-opacity="0"/>
</linearGradient>
<linearGradient id="paint3_linear" x1="851.498" y1="61.5" x2="851.498" y2="312.5" gradientUnits="userSpaceOnUse">
<stop stop-color="white"/>
<stop offset="1" stop-color="white" stop-opacity="0"/>
</linearGradient>
</defs>
</svg>
