<svg width="60" height="60" fill="none" xmlns="http://www.w3.org/2000/svg"><path d="M50.125 50.25H9.875a.875.875 0 010-1.75h40.25a.875.875 0 010 1.75z" fill="#FF6615"/><path d="M20.375 50.25h-8.75a.875.875 0 01-.875-.874V39.75c0-.965.784-1.75 1.75-1.75h7c.966 0 1.75.785 1.75 1.75v9.625a.875.875 0 01-.875.875zM12.5 48.5h7v-8.75h-7v8.75zM34.375 50.25h-8.75a.875.875 0 01-.875-.874V29.25c0-.965.784-1.75 1.75-1.75h7c.966 0 1.75.785 1.75 1.75v20.125a.875.875 0 01-.875.875zM26.5 48.5h7V29.25h-7V48.5zM48.375 50.25h-8.75a.875.875 0 01-.875-.874V32.75c0-.965.784-1.75 1.75-1.75h7c.966 0 1.75.785 1.75 1.75v16.625a.875.875 0 01-.875.875zM40.5 48.5h7V32.75h-7V48.5zM13.375 27.5a.876.876 0 01-.62-1.493l8.75-8.75a.869.869 0 01.832-.23l13.52 3.379 10.15-10.15a.876.876 0 011.237 1.237l-10.5 10.5a.87.87 0 01-.83.23l-13.521-3.378-8.4 8.4a.872.872 0 01-.618.255z" fill="#FF6615"/><path d="M46.625 18.75a.875.875 0 01-.875-.875v-6.124h-6.125a.875.875 0 010-1.75h7c.483 0 .875.392.875.875v7a.875.875 0 01-.875.874z" fill="#FF6615"/></svg>