<svg width="50" height="50" viewBox="0 0 50 50" fill="none"
    xmlns="http://www.w3.org/2000/svg">
    <path d="M25 29.6671C27.4852 29.6671 29.5 27.5777 29.5 25.0004C29.5 22.4231 27.4852 20.3337 25 20.3337C22.5147 20.3337 20.5 22.4231 20.5 25.0004C20.5 27.5777 22.5147 29.6671 25 29.6671Z" />
    <path d="M35.5 11.0004C37.9852 11.0004 40 13.0897 40 15.6671C40 18.2444 37.9852 20.3337 35.5 20.3337C33.0147 20.3337 31 18.2444 31 15.6671C31 13.0897 33.0147 11.0004 35.5 11.0004Z" />
    <path d="M28 21.8889L32.5 18.7778" />
    <path d="M14.5 11.0004C12.0148 11.0004 10 13.0897 10 15.6671C10 18.2444 12.0148 20.3337 14.5 20.3337C16.9853 20.3337 19 18.2444 19 15.6671C19 13.0897 16.9853 11.0004 14.5 11.0004Z" />
    <path d="M22 21.8889L17.5 18.7778" />
    <path d="M35.5 39.0001C37.9852 39.0001 40 36.9107 40 34.3334C40 31.7561 37.9852 29.6667 35.5 29.6667C33.0147 29.6667 31 31.7561 31 34.3334C31 36.9107 33.0147 39.0001 35.5 39.0001Z" />
    <path d="M28 28.1116L32.5 31.2227" />
    <path d="M14.5 39.0001C12.0148 39.0001 10 36.9107 10 34.3334C10 31.7561 12.0148 29.6667 14.5 29.6667C16.9853 29.6667 19 31.7561 19 34.3334C19 36.9107 16.9853 39.0001 14.5 39.0001Z" />
    <path d="M22 28.1116L17.5 31.2227" />
</svg>
