<svg width="30" height="30" viewBox="0 0 30 30" fill="none" xmlns="http://www.w3.org/2000/svg">
<path d="M13 16C13.4295 16.5741 13.9774 17.0491 14.6066 17.3929C15.2357 17.7367 15.9315 17.9411 16.6467 17.9923C17.3618 18.0435 18.0796 17.9403 18.7513 17.6897C19.4231 17.4392 20.0331 17.047 20.54 16.54L23.54 13.54C24.4508 12.597 24.9548 11.3339 24.9434 10.023C24.932 8.71198 24.4061 7.45791 23.4791 6.53087C22.5521 5.60383 21.298 5.07799 19.987 5.0666C18.676 5.0552 17.413 5.55918 16.47 6.46997L14.75 8.17997" stroke="#FF6615" stroke-width="1.5" stroke-linecap="round" stroke-linejoin="round"/>
<path d="M17.0002 14C16.5707 13.4259 16.0228 12.9508 15.3936 12.607C14.7645 12.2633 14.0687 12.0589 13.3535 12.0076C12.6384 11.9564 11.9206 12.0596 11.2489 12.3102C10.5771 12.5608 9.96709 12.9529 9.4602 13.46L6.4602 16.46C5.54941 17.403 5.04544 18.666 5.05683 19.977C5.06822 21.288 5.59407 22.542 6.52111 23.4691C7.44815 24.3961 8.70221 24.922 10.0132 24.9334C11.3242 24.9447 12.5872 24.4408 13.5302 23.53L15.2402 21.82" stroke="#FF6615" stroke-width="1.5" stroke-linecap="round" stroke-linejoin="round"/>
</svg>
