<svg width="60" height="60" fill="none" xmlns="http://www.w3.org/2000/svg"><path d="M33.692 28.615a5.795 5.795 0 01-5.788-5.79 5.796 5.796 0 015.788-5.789 5.795 5.795 0 015.789 5.79 5.795 5.795 0 01-5.789 5.789zm0-9.938a4.153 4.153 0 00-4.147 4.148 4.153 4.153 0 004.147 4.149 4.153 4.153 0 004.148-4.149 4.153 4.153 0 00-4.148-4.148z" fill="#FF6615"/><path d="M45.795 29.667a.82.82 0 00-1.045.504 11.627 11.627 0 01-2.78 4.42c-.437.437-.904.837-1.398 1.197v-3.683a2.48 2.48 0 00-2.477-2.477H29.29a2.48 2.48 0 00-2.477 2.477v3.697a11.801 11.801 0 01-1.407-1.202c-4.564-4.565-4.56-11.997.009-16.566a11.647 11.647 0 018.284-3.435h.006c3.126 0 6.064 1.216 8.274 3.426a11.59 11.59 0 012.788 4.453.82.82 0 101.551-.534 13.214 13.214 0 00-3.179-5.08 13.252 13.252 0 00-9.434-3.907h-.007a13.277 13.277 0 00-9.444 3.916c-5.209 5.21-5.212 13.682-.008 18.887a13.356 13.356 0 002.992 2.253 13.37 13.37 0 006.442 1.654h.013a13.386 13.386 0 006.455-1.666 13.369 13.369 0 002.983-2.25 13.256 13.256 0 003.168-5.04.82.82 0 00-.504-1.044zm-17.34 7.132v-4.694c0-.46.374-.836.835-.836h8.805c.46 0 .836.375.836.836v4.683a11.81 11.81 0 01-10.477.01z" fill="#FF6615"/><path d="M33.69 9c-9.543 0-17.308 7.766-17.308 17.311 0 3.757 1.203 7.238 3.243 10.078l-1.574 1.574-.391-.392a.82.82 0 00-1.16 0l-2.387 2.387-3.886 3.886a4.202 4.202 0 000 5.937 4.169 4.169 0 002.968 1.229 4.169 4.169 0 002.968-1.23l3.886-3.886 2.386-2.386a.82.82 0 000-1.16l-.392-.392 1.575-1.575a17.214 17.214 0 0010.073 3.241c9.544 0 17.309-7.765 17.309-17.31C51 16.765 43.235 9 33.69 9zM15.003 48.62a2.539 2.539 0 01-1.807.749 2.539 2.539 0 01-1.807-.749 2.56 2.56 0 010-3.615l3.306-3.307 1.805 1.806 1.81 1.81-3.307 3.306zm4.467-4.467l-1.806-1.806-1.809-1.81 1.226-1.225 3.615 3.615-1.226 1.226zm1.414-3.358l-.835-.835-.836-.837 1.44-1.44a17.46 17.46 0 001.67 1.672l-1.44 1.44zm12.808 1.186c-8.64 0-15.668-7.03-15.668-15.67s7.029-15.67 15.668-15.67c8.64 0 15.668 7.03 15.668 15.67s-7.029 15.67-15.668 15.67z" fill="#FF6615"/></svg>