<svg width="60" height="60" fill="none" xmlns="http://www.w3.org/2000/svg"><path d="M17.75 37.169c.322 1.608 1.286 3.055 2.573 3.858 1.286.804 2.733 1.447 4.18 1.93l-1.608 2.893h-4.823c-.965 0-1.93.483-2.573 1.287L13.57 50.03c-.643.964-.804 2.25-.16 3.215.482 1.125 1.607 1.768 2.732 1.768h27.01c1.126 0 2.251-.643 2.733-1.768.483-1.125.483-2.25-.16-3.215l-2.09-2.894c-.644-.804-1.608-1.287-2.573-1.287H36.24l-1.768-3.215a15.874 15.874 0 007.717-6.11l.321-.642c4.662-6.914 2.894-16.238-3.698-21.383l.483-.482 2.733-1.93c.482-.321.804-.964.804-1.607s-.322-1.286-.965-1.608l-4.823-3.537c-.483-.322-1.286-.482-1.93-.16-.642.32-1.125.803-1.125 1.446l-.643 3.376c0 .322-.16.644-.322.804l-5.305 7.878c-.643.965-.322 2.25.643 2.894l2.412 1.608c.321.16.804.321 1.125.321h.482a2.5 2.5 0 001.287-.964l1.447-2.09c3.376 2.893 4.18 7.877 1.607 11.575l-.321.643c-2.09 3.216-5.949 4.663-9.647 3.698a1.647 1.647 0 01-.964-.804c-.161-.482-.161-.804.16-1.286l3.216-4.823 2.894 1.93c.16.16.322.16.482.16.322 0 .483-.16.643-.322.322-.321.161-.964-.16-1.125l-11.576-7.717c-.322-.322-.965-.16-1.125.16-.322.322-.161.965.16 1.126l2.894 1.93-4.662 7.073c-.965 1.286-1.286 2.894-.965 4.502zM42.348 48.1l1.93 2.733h-29.26l1.928-2.733c.322-.321.804-.643 1.287-.643h22.83c.481 0 .964.161 1.285.643zm2.09 4.502c-.321.482-.803.804-1.286.804h-27.01c-.643 0-1.125-.322-1.286-.804-.321-.322-.321-.643-.321-.965h30.064c0 .322 0 .643-.16.965zM24.824 45.85l1.286-2.411.804-1.608L28.2 39.42c.322-.483.804-.804 1.287-.804.482 0 1.125.321 1.286.804l1.286 2.25.804 1.447 1.447 2.573h-9.486v.16zm9.164-26.527l-1.608 2.412c0 .16-.16.16-.321.16h-.322l-2.411-1.607c-.322-.161-.322-.483-.322-.643l1.608-2.573 3.215 2.09.161.161zm.322-7.556c.321-.482.482-.965.643-1.447l.643-3.376c0-.161.16-.161.16-.161h.322l5.306 3.537c.16.16.16.16.16.322 0 0 0 .16-.16.321l-2.733 1.769a3.758 3.758 0 00-1.126 1.125v.16l-3.215-2.25zm-.643.804l3.215 2.09h.16l-2.572 3.858-.16-.16-3.055-2.09 2.412-3.698zm4.019 21.06l.322-.642c3.054-4.502 1.929-10.45-2.09-13.827l2.09-3.215c5.787 4.502 7.234 12.862 3.215 18.971l-.322.643c-1.768 2.733-4.34 4.502-7.074 5.466l-1.447-2.572c-.16-.322-.321-.482-.643-.804 2.412-.482 4.663-1.93 5.949-4.02zM20 33.472l4.662-6.913 3.055 2.09-3.215 4.823c-.483.804-.643 1.769-.322 2.733.322.965 1.125 1.608 2.09 1.93.322.16.643.16.965.16-.161.161-.322.322-.322.483l-1.608 2.893c-1.446-.321-2.733-.964-4.019-1.768-.964-.643-1.607-1.608-1.93-2.894-.32-1.447 0-2.572.644-3.537z" fill="#FF6615"/></svg>