<svg width="30" height="30" viewBox="0 0 30 30" fill="none" xmlns="http://www.w3.org/2000/svg">
<path d="M15 15V15.0134" stroke="#FF6615" stroke-width="1.5" stroke-linecap="round" stroke-linejoin="round"/>
<path d="M23.8388 6.16114C22.9011 5.22346 21.0706 5.25542 18.7499 6.24998C16.4293 7.24454 13.8086 9.12024 11.4644 11.4644C9.12018 13.8086 7.24448 16.4293 6.24992 18.75C5.25536 21.0706 5.22341 22.9011 6.16109 23.8388C7.09877 24.7765 8.92928 24.7445 11.2499 23.75C13.5706 22.7554 16.1913 20.8797 18.5355 18.5355C19.6962 17.3748 20.7541 16.134 21.6488 14.8839C22.5435 13.6339 23.2575 12.399 23.7499 11.25C24.2424 10.1009 24.5037 9.06009 24.5189 8.18695C24.5342 7.31381 24.303 6.62544 23.8388 6.16114" stroke="#FF6615" stroke-width="1.5" stroke-linecap="round" stroke-linejoin="round"/>
<path d="M6.16102 6.16112C5.22334 7.0988 5.2553 8.92931 6.24986 11.25C7.24442 13.5706 9.12012 16.1913 11.4643 18.5355C13.8085 20.8797 16.4292 22.7554 18.7499 23.75C21.0705 24.7445 22.901 24.7765 23.8387 23.8388C24.7764 22.9011 24.7444 21.0706 23.7499 18.75C22.7553 16.4293 20.8796 13.8086 18.5354 11.4644C17.3747 10.3037 16.1338 9.24577 14.8838 8.35107C13.6337 7.45637 12.3989 6.74241 11.2499 6.24996C10.1008 5.7575 9.05997 5.49619 8.18683 5.48095C7.31369 5.4657 6.62532 5.69683 6.16102 6.16112" stroke="#FF6615" stroke-width="1.5" stroke-linecap="round" stroke-linejoin="round"/>
</svg>
