<svg width="30" height="30" viewBox="0 0 30 30" fill="none" xmlns="http://www.w3.org/2000/svg">
<path d="M17.3149 28.1953H13.6847C12.7984 28.1953 12.0442 27.5896 11.8499 26.7229L11.3893 24.6786C10.6395 24.361 9.92567 23.9462 9.25659 23.4409L7.26793 24.0685C6.4144 24.3315 5.48665 23.9703 5.05879 23.2084L3.24913 20.0781C2.81581 19.3031 2.96207 18.3481 3.60058 17.7478L5.14174 16.331C5.09481 15.9163 5.07079 15.5026 5.07079 15.0977C5.07079 14.6927 5.09372 14.2791 5.14065 13.8643L3.60713 12.4541C2.96207 11.8473 2.81472 10.8933 3.24367 10.1282L5.06425 6.9793C5.48774 6.22618 6.4144 5.86163 7.26575 6.12686L9.25659 6.75445C9.92567 6.2491 10.6406 5.83434 11.3893 5.51673L11.8499 3.47131C12.0442 2.60577 12.7984 2 13.6847 2H17.3149C18.2012 2 18.9554 2.60577 19.1497 3.4724L19.6103 5.51673C20.3601 5.83434 21.074 6.2491 21.743 6.75445L23.7317 6.12686C24.5831 5.86054 25.5119 6.22509 25.9408 6.98694L27.7505 10.1173C28.1838 10.8922 28.0376 11.8473 27.3991 12.4476L25.8579 13.8643C25.9048 14.2791 25.9277 14.6927 25.9277 15.0977C25.9277 15.5026 25.9048 15.9163 25.8579 16.331L27.3925 17.7412C27.3947 17.7434 27.3969 17.7456 27.3991 17.7478C28.0376 18.3481 28.1849 19.302 27.756 20.0671L25.9354 23.216C25.5108 23.9692 24.5841 24.3337 23.7339 24.0685L21.7419 23.4398C21.0729 23.9451 20.358 24.3599 19.6092 24.6775L19.1486 26.7229C18.9554 27.5896 18.2012 28.1953 17.3149 28.1953ZM9.42468 21.7109C9.61241 21.7109 9.79687 21.7753 9.9464 21.8975C10.6941 22.5142 11.5127 22.989 12.3782 23.3088C12.638 23.4049 12.8323 23.6264 12.8934 23.8971L13.4489 26.3639C13.474 26.4763 13.5745 26.5581 13.6869 26.5581H17.3171C17.4295 26.5581 17.5289 26.4763 17.5551 26.3649L18.1106 23.8982C18.1717 23.6275 18.3649 23.406 18.6258 23.3099C19.4913 22.9901 20.3099 22.5142 21.0576 21.8986C21.2715 21.7218 21.5586 21.6651 21.8249 21.7491L24.2272 22.5077C24.3407 22.5426 24.463 22.5033 24.5165 22.4062L26.337 19.2584C26.3916 19.1612 26.372 19.0281 26.2836 18.9429L24.4412 17.249C24.2403 17.0645 24.1454 16.7938 24.1868 16.5242C24.2589 16.044 24.296 15.5637 24.296 15.0977C24.296 14.6316 24.26 14.1525 24.1868 13.6711C24.1465 13.4015 24.2414 13.1308 24.4412 12.9464L26.2879 11.248C26.3709 11.1695 26.3927 11.0352 26.3316 10.9272L24.5219 7.7979C24.463 7.69421 24.3451 7.65383 24.225 7.68876L21.826 8.44624C21.5597 8.53028 21.2726 8.47352 21.0587 8.29671C20.311 7.68002 19.4924 7.20523 18.6269 6.88543C18.3671 6.78938 18.1728 6.56781 18.1117 6.29713L17.5562 3.8304C17.5267 3.71907 17.4274 3.63721 17.3149 3.63721H13.6847C13.5723 3.63721 13.473 3.71907 13.4468 3.8304L12.8912 6.29822C12.8312 6.5689 12.6369 6.78938 12.3771 6.88652C11.5116 7.20633 10.693 7.68112 9.94531 8.2978C9.73138 8.47462 9.44433 8.53028 9.17801 8.44733L6.77567 7.68876C6.66216 7.65383 6.53992 7.69421 6.48643 7.79026L4.66586 10.937C4.61019 11.0352 4.63202 11.1695 4.72152 11.2546L6.56284 12.9464C6.76367 13.1308 6.85863 13.4015 6.81715 13.6711C6.74511 14.1514 6.708 14.6316 6.708 15.0977C6.708 15.5637 6.74402 16.0429 6.81715 16.5242C6.85754 16.7938 6.76258 17.0645 6.56284 17.249L4.71607 18.9473C4.63311 19.0259 4.61128 19.1601 4.67241 19.2682L6.48207 22.3974C6.5421 22.5022 6.66107 22.5448 6.77895 22.5066L9.17801 21.7491C9.25878 21.7229 9.34173 21.7109 9.42468 21.7109Z" fill="#FF6615"/>
<path d="M14.6818 19.4635C14.6196 19.4635 14.5585 19.457 14.4963 19.4428C14.0564 19.3413 13.7814 18.9014 13.8829 18.4616L15.5201 11.367C15.6216 10.925 16.0669 10.6532 16.5013 10.7525C16.9412 10.854 17.2162 11.2939 17.1147 11.7337L15.4775 18.8283C15.3902 19.2081 15.054 19.4635 14.6818 19.4635Z" fill="#FF6615"/>
<path d="M19.0471 18.3721C18.8233 18.3721 18.6007 18.2815 18.4381 18.1014C18.1357 17.7652 18.163 17.2479 18.4992 16.9444L20.5522 15.0977L18.4992 13.2509C18.163 12.9486 18.1357 12.4312 18.4381 12.0939C18.7415 11.7589 19.2588 11.7316 19.595 12.0328L22.3237 14.4886C22.4962 14.6447 22.5944 14.8663 22.5944 15.0977C22.5944 15.3291 22.4962 15.5506 22.3237 15.7067L19.595 18.1625C19.4378 18.3033 19.2425 18.3721 19.0471 18.3721Z" fill="#FF6615"/>
<path d="M11.9526 18.3722C11.7572 18.3722 11.5618 18.3034 11.4046 18.1626L8.67596 15.7068C8.50351 15.5507 8.40527 15.3292 8.40527 15.0978C8.40527 14.8664 8.50351 14.6448 8.67596 14.4887L11.4046 12.0329C11.7408 11.7306 12.2571 11.7579 12.5616 12.094C12.8639 12.4302 12.8367 12.9476 12.5005 13.251L10.4474 15.0978L12.5005 16.9445C12.8367 17.2469 12.8639 17.7642 12.5616 18.1015C12.399 18.2816 12.1763 18.3722 11.9526 18.3722Z" fill="#FF6615"/>
</svg>
