<svg width="50" height="50" viewBox="0 0 50 50" fill="none"
    xmlns="http://www.w3.org/2000/svg">
    <path d="M40 36C40 36.7956 39.6839 37.5587 39.1213 38.1213C38.5587 38.6839 37.7956 39 37 39H13C12.2044 39 11.4413 38.6839 10.8787 38.1213C10.3161 37.5587 10 36.7956 10 36V15C10 14.2044 10.3161 13.4413 10.8787 12.8787C11.4413 12.3161 12.2044 12 13 12H20.5L23.5 16.5H37C37.7956 16.5 38.5587 16.8161 39.1213 17.3787C39.6839 17.9413 40 18.7044 40 19.5V36Z" />
    <path d="M25 24V33" />
    <path d="M20.5 28.5H29.5" />
</svg>
