<svg width="50" height="50" viewBox="0 0 50 50" fill="none"
    xmlns="http://www.w3.org/2000/svg">
    <path d="M31.1818 39.0001V35.889C31.1818 34.2387 30.5305 32.6561 29.3712 31.4892C28.2119 30.3223 26.6395 29.6667 25 29.6667H14.1818C12.5423 29.6667 10.9699 30.3223 9.81061 31.4892C8.6513 32.6561 8 34.2387 8 35.889V39.0001" />
    <path d="M19.591 23.4444C23.0051 23.4444 25.7728 20.6587 25.7728 17.2222C25.7728 13.7858 23.0051 11 19.591 11C16.1769 11 13.4092 13.7858 13.4092 17.2222C13.4092 20.6587 16.1769 23.4444 19.591 23.4444Z" />
    <path d="M32.7275 23.4446L35.8184 26.5557L42.0003 20.3335" />
</svg>
