<svg width="60" height="60" fill="none" xmlns="http://www.w3.org/2000/svg"><path d="M37.873 19.991a.888.888 0 001.26 0 .89.89 0 000-1.26l-.013-.012a.89.89 0 00-1.26 1.26l.013.012z" fill="#FF6615"/><path d="M52.244 28.42l3.105-3.105a.89.89 0 00-.63-1.52h-6.436a19.35 19.35 0 00-5.131-9.107A19.292 19.292 0 0029.42 9a19.293 19.293 0 00-13.732 5.688A19.293 19.293 0 0010 28.42c0 5.187 2.02 10.064 5.688 13.732a19.558 19.558 0 003.57 2.824l-2.684 4.741a.89.89 0 00.775 1.33h4.588a.89.89 0 00.775-.452l1.898-3.353c1.553.394 3.166.598 4.81.598 1.644 0 3.257-.204 4.81-.598l1.898 3.353a.89.89 0 00.775.452h4.588a.89.89 0 00.775-1.33l-2.684-4.741c1.281-.79 2.48-1.733 3.57-2.824a19.354 19.354 0 005.131-9.106h6.436a.891.891 0 00.63-1.521l-3.105-3.105zm-1.629-.89h-6.217l1.954-1.954h6.217l-1.954 1.953zM21.418 49.264h-2.54l1.938-3.425c.666.33 1.349.62 2.048.87l-1.446 2.555zm18.545 0h-2.54l-1.447-2.554c.7-.25 1.382-.542 2.048-.871l1.939 3.425zm1.93-8.373a17.719 17.719 0 01-3.907 2.954l-.052.026-.031.02a17.402 17.402 0 01-3.416 1.43.885.885 0 00-.138.04 17.711 17.711 0 01-4.929.696c-1.692 0-3.348-.238-4.93-.695a.887.887 0 00-.138-.04 17.4 17.4 0 01-3.415-1.43l-.031-.02c-.017-.01-.035-.018-.052-.027a17.712 17.712 0 01-3.906-2.954 17.523 17.523 0 01-5.166-12.472c0-4.711 1.834-9.14 5.166-12.472a17.523 17.523 0 0112.472-5.166c4.711 0 9.14 1.834 12.472 5.166a17.577 17.577 0 014.552 7.846h-.461a.89.89 0 00-.63.261l-2.364 2.364a13.724 13.724 0 00-1.553-4.626.89.89 0 00-1.56.861 11.83 11.83 0 011.439 4.875h-3.928a7.956 7.956 0 00-2.298-4.778 7.965 7.965 0 00-5.669-2.349 7.965 7.965 0 00-5.67 2.349 7.965 7.965 0 00-2.348 5.669c0 2.141.834 4.155 2.349 5.67a7.965 7.965 0 005.669 2.347 7.965 7.965 0 005.67-2.348 7.956 7.956 0 002.297-4.778h3.924a11.954 11.954 0 01-3.45 7.55 11.859 11.859 0 01-8.441 3.496 11.859 11.859 0 01-8.44-3.496 11.858 11.858 0 01-3.497-8.441c0-3.189 1.241-6.186 3.496-8.44 3.74-3.74 9.582-4.57 14.207-2.016a.891.891 0 00.861-1.56 13.817 13.817 0 00-8.46-1.58c-3 .402-5.721 1.75-7.868 3.895a13.63 13.63 0 00-4.018 9.701c0 3.664 1.427 7.11 4.018 9.7a13.63 13.63 0 009.701 4.019c3.664 0 7.11-1.427 9.7-4.018a13.59 13.59 0 003.872-7.697l2.36 2.36a.89.89 0 00.63.262h.462a17.581 17.581 0 01-4.552 7.846zM32.328 26.74a.89.89 0 00-1.216-.326l-2.139 1.234a.89.89 0 000 1.543l2.139 1.235a.89.89 0 001.266-1.115h3.213a6.188 6.188 0 01-1.763 3.518 6.195 6.195 0 01-4.409 1.827 6.195 6.195 0 01-4.41-1.827 6.195 6.195 0 01-1.826-4.409c0-1.666.649-3.232 1.827-4.41a6.195 6.195 0 014.409-1.826c1.666 0 3.231.649 4.41 1.827a6.189 6.189 0 011.762 3.518H32.38a.888.888 0 00-.05-.789zm14.023 4.524l-1.954-1.953h6.217l1.954 1.953h-6.217z" fill="#FF6615"/></svg>