<svg width="60" height="60" fill="none" xmlns="http://www.w3.org/2000/svg"><path d="M35.133 23.003a.932.932 0 01-.933-.933V14.6a.932.932 0 111.866 0v7.47a.932.932 0 01-.933.933zM48.2 23.003a.932.932 0 01-.933-.933v-.273a.932.932 0 111.866 0v.273a.932.932 0 01-.933.933zM33.266 35.133a.932.932 0 01-.933-.933 3.737 3.737 0 013.733-3.733.932.932 0 110 1.867c-1.03 0-1.866.837-1.866 1.866a.932.932 0 01-.934.933z" fill="#FF6615"/><path d="M38.867 32.339h-2.8a.932.932 0 110-1.867h2.8a.932.932 0 110 1.867zM33.266 38.87a.932.932 0 01-.933-.933V34.2a.932.932 0 111.867 0v3.737a.932.932 0 01-.934.933zM50.067 35.133a.932.932 0 01-.934-.933c0-1.03-.837-1.867-1.866-1.867a.932.932 0 110-1.866A3.737 3.737 0 0151 34.2a.932.932 0 01-.933.933z" fill="#FF6615"/><path d="M47.267 32.339h-2.8a.932.932 0 110-1.867h2.8a.932.932 0 110 1.867zM50.067 38.87a.932.932 0 01-.934-.933V34.2a.932.932 0 111.867 0v3.737a.932.932 0 01-.933.933z" fill="#FF6615"/><path d="M50.066 38.87h-16.8a.932.932 0 110-1.866h16.8a.933.933 0 110 1.867zM38.866 32.339a.932.932 0 01-.933-.933v-3.439a.932.932 0 111.867 0v3.439a.932.932 0 01-.934.933zM44.467 32.333a.932.932 0 01-.934-.933v-3.433a.932.932 0 111.867 0V31.4a.932.932 0 01-.933.933z" fill="#FF6615"/><path d="M41.666 29.53c-4.117 0-7.466-3.348-7.466-7.463a.932.932 0 111.866 0 5.604 5.604 0 005.6 5.596c3.089 0 5.6-2.51 5.6-5.596a.932.932 0 111.867 0c0 4.115-3.35 7.463-7.467 7.463zM41.666 34.2a.94.94 0 01-.518-.157l-2.8-1.866a.933.933 0 111.037-1.553l2.8 1.866a.933.933 0 01-.52 1.71z" fill="#FF6615"/><path d="M41.667 34.2a.933.933 0 01-.52-1.71l2.801-1.866a.933.933 0 111.037 1.553l-2.8 1.866a.94.94 0 01-.518.157zM9.933 45.403A.932.932 0 019 44.47c0-3.088 2.511-5.6 5.6-5.6a.933.933 0 110 1.867 3.737 3.737 0 00-3.733 3.733.932.932 0 01-.934.933z" fill="#FF6615"/><path d="M17.4 40.737h-2.8a.932.932 0 110-1.867h2.8a.933.933 0 110 1.867zM9.933 49.137A.932.932 0 019 48.204V44.47a.933.933 0 111.867 0v3.734a.932.932 0 01-.934.933z" fill="#FF6615"/><path d="M10.867 50.07A1.869 1.869 0 019 48.204c0-.496.39-.853.885-.88.526-.016.926.388.982.879a.934.934 0 010 1.867zM32.333 45.403a.932.932 0 01-.933-.933 3.737 3.737 0 00-3.733-3.733.932.932 0 110-1.867c3.088 0 5.6 2.512 5.6 5.6a.932.932 0 01-.934.933z" fill="#FF6615"/><path d="M27.667 40.737h-2.8a.932.932 0 110-1.867h2.8a.933.933 0 110 1.867zM32.333 49.137a.932.932 0 01-.933-.933V44.47a.933.933 0 111.867 0v3.734a.932.932 0 01-.934.933z" fill="#FF6615"/><path d="M31.4 50.07a.932.932 0 110-1.866.933.933 0 111.867 0A1.87 1.87 0 0131.4 50.07z" fill="#FF6615"/><path d="M31.4 50.07H10.866a.932.932 0 110-1.866H31.4a.933.933 0 110 1.866zM17.4 40.737a.932.932 0 01-.933-.933V36.13a.932.932 0 111.867 0v3.674a.932.932 0 01-.934.933zM24.867 40.737a.932.932 0 01-.933-.933V36.13a.932.932 0 111.866 0v3.674a.932.932 0 01-.933.933z" fill="#FF6615"/><path d="M21.132 37.937c-5.146 0-9.332-4.186-9.332-9.332a.932.932 0 111.866 0c0 4.116 3.35 7.465 7.466 7.465 4.118 0 7.468-3.349 7.468-7.465a.932.932 0 111.866 0c0 5.146-4.186 9.332-9.334 9.332z" fill="#FF6615"/><path d="M12.733 29.585a.932.932 0 01-.933-.934v-5.647a.933.933 0 111.866 0v5.647a.933.933 0 01-.933.934zM29.533 29.539a.932.932 0 01-.933-.934v-5.601a.933.933 0 111.867 0v5.601a.932.932 0 01-.934.934z" fill="#FF6615"/><path d="M29.533 23.937a.932.932 0 01-.933-.933c0-1.544-1.256-2.8-2.8-2.8a.932.932 0 110-1.867 4.672 4.672 0 014.667 4.667.932.932 0 01-.934.933z" fill="#FF6615"/><path d="M25.8 20.203a.932.932 0 01-.933-.933v-3.733a.933.933 0 111.866 0v3.733a.932.932 0 01-.933.933z" fill="#FF6615"/><path d="M25.8 16.47h-5.6a.932.932 0 110-1.866h5.6a.933.933 0 110 1.866z" fill="#FF6615"/><path d="M12.733 23.937a.932.932 0 01-.933-.934c0-4.631 3.768-8.4 8.4-8.4a.933.933 0 110 1.867 6.542 6.542 0 00-6.534 6.534.932.932 0 01-.933.933zM29.532 26.76a.936.936 0 01-.521-.16l-2.8-1.89a.935.935 0 011.044-1.548l2.8 1.89a.934.934 0 01-.523 1.708z" fill="#FF6615"/><path d="M21.6 25.804c-3.371 0-6.241-.94-6.36-.981a.934.934 0 01.588-1.772c.027.009 2.713.885 5.773.885 2.966 0 4.704-.828 4.722-.837a.937.937 0 011.247.427.932.932 0 01-.418 1.246c-.087.042-2.112 1.032-5.552 1.032z" fill="#FF6615"/><path d="M12.734 26.76a.933.933 0 01-.522-1.707l2.8-1.89a.935.935 0 011.044 1.549l-2.8 1.89a.935.935 0 01-.522.158zM19.267 42.604a.931.931 0 01-.66-.274l-1.867-1.866a.932.932 0 111.32-1.32l1.867 1.867a.932.932 0 01-.66 1.593z" fill="#FF6615"/><path d="M19.268 42.604a.934.934 0 01-.42-1.769l1.867-.933a.933.933 0 11.835 1.67l-1.866.933a.92.92 0 01-.416.099zM23 42.604a.932.932 0 01-.66-1.593l1.867-1.867a.932.932 0 111.32 1.32L23.66 42.33a.932.932 0 01-.66.274z" fill="#FF6615"/><path d="M23 42.604a.931.931 0 01-.417-.098l-1.867-.934a.933.933 0 11.836-1.67l1.866.934A.934.934 0 0123 42.604zM50.067 18.333a.932.932 0 01-.934-.933 6.542 6.542 0 00-6.533-6.533c-1.663 0-3.138.903-4.082 1.66a.934.934 0 01-1.169-1.455C39.04 9.717 40.854 9 42.6 9c4.632 0 8.4 3.768 8.4 8.4a.932.932 0 01-.933.933zM50.066 27.667a.932.932 0 01-.933-.934A6.542 6.542 0 0042.6 20.2a.932.932 0 110-1.866c4.632 0 8.4 3.768 8.4 8.4a.932.932 0 01-.934.933zM35.133 20.2a.932.932 0 110-1.867c1.03 0 1.867-.837 1.867-1.866a.932.932 0 111.866 0 3.737 3.737 0 01-3.733 3.733z" fill="#FF6615"/><path d="M35.133 15.533a.932.932 0 01-.933-.933 3.737 3.737 0 013.733-3.733.932.932 0 110 1.866c-1.03 0-1.867.837-1.867 1.867a.932.932 0 01-.933.933zM40.733 20.2A3.737 3.737 0 0137 16.467a.932.932 0 111.867 0c0 1.029.837 1.866 1.866 1.866a.932.932 0 110 1.867z" fill="#FF6615"/><path d="M37.933 17.4a.932.932 0 01-.933-.933V11.8a.932.932 0 111.867 0v4.667a.932.932 0 01-.934.933zM50.067 27.667a.932.932 0 01-.934-.934V17.4a.932.932 0 111.867 0v9.334a.932.932 0 01-.933.933zM42.6 20.2h-1.867a.932.932 0 110-1.866H42.6a.932.932 0 110 1.866z" fill="#FF6615"/></svg>