<svg width="50" height="50" fill="none" xmlns="http://www.w3.org/2000/svg"><path d="M39 31.963v4.215a2.805 2.805 0 01-1.914 2.674 2.82 2.82 0 01-1.156.137 27.896 27.896 0 01-12.15-4.314 27.425 27.425 0 01-8.447-8.43 27.77 27.77 0 01-4.322-12.182 2.804 2.804 0 011.667-2.823c.358-.158.744-.24 1.135-.24h4.223a2.82 2.82 0 012.816 2.417c.178 1.349.509 2.673.986 3.948a2.805 2.805 0 01-.634 2.965l-1.788 1.784a22.503 22.503 0 008.447 8.43l1.788-1.784a2.818 2.818 0 012.97-.632c1.278.475 2.605.805 3.957.983.683.096 1.308.44 1.755.966.446.526.683 1.197.666 1.886z"/></svg>