<svg width="35" height="35" viewBox="0 0 35 35" fill="none"
    xmlns="http://www.w3.org/2000/svg">
    <path d="M27.252 21.8211C26.6025 23.3569 25.5868 24.7103 24.2935 25.7628C23.0002 26.8154 21.4687 27.5351 19.833 27.8591C18.1973 28.1831 16.5071 28.1014 14.9103 27.6213C13.3134 27.1411 11.8584 26.2771 10.6726 25.1048C9.48684 23.9324 8.60627 22.4875 8.10792 20.8962C7.60957 19.3049 7.50861 17.6158 7.81388 15.9765C8.11915 14.3371 8.82134 12.7976 9.85907 11.4923C10.8968 10.1871 12.2385 9.15594 13.7668 8.48901" />
    <path d="M28.2728 17.8501C28.2728 16.5095 28.0087 15.182 27.4957 13.9435C26.9827 12.705 26.2308 11.5796 25.2828 10.6317C24.3349 9.68374 23.2095 8.9318 21.971 8.41879C20.7325 7.90577 19.405 7.64172 18.0645 7.64172V17.8501H28.2728Z" />
</svg>
