<svg width="35" height="35" viewBox="0 0 35 35" fill="none"
    xmlns="http://www.w3.org/2000/svg">
    <path d="M21.8274 27.3001V25.1223C21.8274 23.9671 21.3715 22.8593 20.5599 22.0424C19.7484 21.2256 18.6478 20.7667 17.5001 20.7667H9.92737C8.77971 20.7667 7.67905 21.2256 6.86753 22.0424C6.05601 22.8593 5.6001 23.9671 5.6001 25.1223V27.3001" />
    <path d="M13.7137 16.4111C16.1036 16.4111 18.041 14.4611 18.041 12.0556C18.041 9.65006 16.1036 7.70001 13.7137 7.70001C11.3239 7.70001 9.38647 9.65006 9.38647 12.0556C9.38647 14.4611 11.3239 16.4111 13.7137 16.4111Z" />
    <path d="M22.9092 16.4112L25.0728 18.589L29.4001 14.2335" />
</svg>
