<svg width="50" height="50" viewBox="0 0 50 50" fill="none" xmlns="http://www.w3.org/2000/svg">
<path d="M31.25 36.25V33.75C31.25 32.4239 30.7232 31.1521 29.7855 30.2145C28.8479 29.2768 27.5761 28.75 26.25 28.75H16.25C14.9239 28.75 13.6521 29.2768 12.7145 30.2145C11.7768 31.1521 11.25 32.4239 11.25 33.75V36.25" stroke="#FF6615" stroke-width="2" stroke-linecap="round" stroke-linejoin="round"/>
<path d="M21.25 23.75C24.0114 23.75 26.25 21.5114 26.25 18.75C26.25 15.9886 24.0114 13.75 21.25 13.75C18.4886 13.75 16.25 15.9886 16.25 18.75C16.25 21.5114 18.4886 23.75 21.25 23.75Z" stroke="#FF6615" stroke-width="2" stroke-linecap="round" stroke-linejoin="round"/>
<path d="M38.75 36.2501V33.7501C38.7492 32.6423 38.3804 31.5661 37.7017 30.6905C37.023 29.8149 36.0727 29.1896 35 28.9126" stroke="#FF6615" stroke-width="2" stroke-linecap="round" stroke-linejoin="round"/>
<path d="M30 13.9126C31.0755 14.188 32.0288 14.8135 32.7095 15.6905C33.3903 16.5675 33.7598 17.6461 33.7598 18.7563C33.7598 19.8666 33.3903 20.9452 32.7095 21.8222C32.0288 22.6992 31.0755 23.3247 30 23.6001" stroke="#FF6615" stroke-width="2" stroke-linecap="round" stroke-linejoin="round"/>
</svg>
