<svg width="30" height="30" viewBox="0 0 30 30" fill="none" xmlns="http://www.w3.org/2000/svg">
<path d="M12.4999 3.99998C10.5445 4.45328 8.74604 5.42148 7.29099 6.80415C5.83594 8.18682 4.77732 9.93361 4.22493 11.8633C3.67254 13.793 3.6465 15.8354 4.14951 17.7786C4.65251 19.7218 5.66625 21.495 7.08558 22.9143C8.5049 24.3336 10.2781 25.3474 12.2213 25.8504C14.1645 26.3534 16.2068 26.3273 18.1365 25.7749C20.0663 25.2226 21.8131 24.1639 23.1957 22.7089C24.5784 21.2538 25.5466 19.4553 25.9999 17.5C25.9999 17.1685 25.8682 16.8505 25.6338 16.6161C25.3994 16.3817 25.0814 16.25 24.7499 16.25H16.2499C15.5869 16.25 14.951 15.9866 14.4821 15.5177C14.0133 15.0489 13.7499 14.413 13.7499 13.75V4.99998C13.7344 4.85188 13.6896 4.70835 13.6182 4.57769C13.5467 4.44703 13.4501 4.33185 13.3338 4.23883C13.2175 4.14581 13.0839 4.0768 12.9408 4.0358C12.7976 3.9948 12.6478 3.98262 12.4999 3.99998Z" stroke="#FF6615" stroke-width="1.5" stroke-linecap="round" stroke-linejoin="round"/>
<path d="M18.75 4.375C20.3372 4.93385 21.7787 5.84162 22.9686 7.03145C24.1584 8.22127 25.0661 9.66285 25.625 11.25H20C19.6685 11.25 19.3505 11.1183 19.1161 10.8839C18.8817 10.6495 18.75 10.3315 18.75 10V4.375Z" stroke="#FF6615" stroke-width="1.5" stroke-linecap="round" stroke-linejoin="round"/>
</svg>
